<?xml version="1.0" encoding="UTF-8" standalone="no"?>
<!DOCTYPE svg PUBLIC "-//W3C//DTD SVG 1.1//EN" "http://www.w3.org/Graphics/SVG/1.1/DTD/svg11.dtd">
<!-- 由 Microsoft Visio, SVG Export 生成 yh.svg 页-1 -->
<svg xmlns="http://www.w3.org/2000/svg" xmlns:xlink="http://www.w3.org/1999/xlink" xmlns:ev="http://www.w3.org/2001/xml-events"
		xmlns:v="http://schemas.microsoft.com/visio/2003/SVGExtensions/" width="4.33493in" height="1.39671in"
		viewBox="0 0 312.115 100.563" xml:space="preserve" color-interpolation-filters="sRGB" class="st13">
	<v:documentProperties v:langID="2052" v:metric="true" v:viewMarkup="false"/>

	<style type="text/css">
	<![CDATA[
		.st1 {stroke:#000000;stroke-linecap:round;stroke-linejoin:round;stroke-width:1.5}
		.st2 {fill:none;stroke:none;stroke-width:0.25}
		.st3 {fill:#000000;font-family:Calibri;font-size:0.75em}
		.st4 {font-size:1em}
		.st5 {stroke:#000000;stroke-dasharray:1,2;stroke-linecap:round;stroke-linejoin:round;stroke-width:1}
		.st6 {fill:#000000;font-family:Calibri;font-size:0.499992em}
		.st7 {marker-end:url(#mrkr5-177);marker-start:url(#mrkr5-175);stroke:#262626;stroke-linecap:round;stroke-linejoin:round;stroke-width:1}
		.st8 {fill:#262626;fill-opacity:1;stroke:#262626;stroke-opacity:1;stroke-width:0.40983606557377}
		.st9 {fill:#000000}
		.st10 {stroke:#000000;stroke-linecap:round;stroke-linejoin:round;stroke-width:0.5}
		.st11 {marker-end:url(#mrkr5-220);stroke:#c00000;stroke-linecap:round;stroke-linejoin:round;stroke-width:1}
		.st12 {fill:#c00000;fill-opacity:1;stroke:#c00000;stroke-opacity:1;stroke-width:0.40983606557377}
		.st13 {fill:none;fill-rule:evenodd;font-size:12px;overflow:visible;stroke-linecap:square;stroke-miterlimit:3}
	]]>
	</style>

	<defs id="Markers">
		<g id="lend5">
			<path d="M 2 1 L 0 0 L 1.98117 -0.993387 C 1.67173 -0.364515 1.67301 0.372641 1.98465 1.00043 " style="stroke:none"/>
		</g>
		<marker id="mrkr5-175" class="st8" v:arrowType="5" v:arrowSize="0" v:setback="3.91" refX="3.91" orient="auto"
				markerUnits="strokeWidth" overflow="visible">
			<use xlink:href="#lend5" transform="scale(2.44) "/>
		</marker>
		<marker id="mrkr5-177" class="st8" v:arrowType="5" v:arrowSize="0" v:setback="4.27" refX="-4.27" orient="auto"
				markerUnits="strokeWidth" overflow="visible">
			<use xlink:href="#lend5" transform="scale(-2.44,-2.44) "/>
		</marker>
		<marker id="mrkr5-220" class="st12" v:arrowType="5" v:arrowSize="0" v:setback="4.27" refX="-4.27" orient="auto"
				markerUnits="strokeWidth" overflow="visible">
			<use xlink:href="#lend5" transform="scale(-2.44,-2.44) "/>
		</marker>
	</defs>
	<g v:mID="0" v:index="1" v:groupContext="foregroundPage">
		<title>页-1</title>
		<v:pageProperties v:drawingScale="0.0393701" v:pageScale="0.0393701" v:drawingUnits="24" v:shadowOffsetX="8.50394"
				v:shadowOffsetY="-8.50394"/>
		<g id="shape3-1" v:mID="3" v:groupContext="shape" transform="translate(53.8858,-80.7049)">
			<title>工作表.3</title>
			<path d="M0 100.56 L11.09 100.56" class="st1"/>
		</g>
		<g id="shape4-4" v:mID="4" v:groupContext="shape" transform="translate(154.449,19.8581) rotate(90)">
			<title>工作表.4</title>
			<path d="M0 100.56 L17.87 100.56" class="st1"/>
		</g>
		<g id="shape5-7" v:mID="5" v:groupContext="shape" transform="translate(165.54,19.8581) rotate(90)">
			<title>工作表.5</title>
			<path d="M0 100.56 L17.87 100.56" class="st1"/>
		</g>
		<g id="shape6-10" v:mID="6" v:groupContext="shape" transform="translate(42.7944,-62.8336)">
			<title>工作表.6</title>
			<path d="M0 100.56 L11.09 100.56" class="st1"/>
		</g>
		<g id="group8-13" transform="translate(65.3805,-62.8336)" v:mID="8" v:groupContext="group">
			<title>工作表.8</title>
			<g id="shape9-14" v:mID="9" v:groupContext="shape" transform="translate(11.0914,-17.8713)">
				<title>工作表.9</title>
				<path d="M0 100.56 L11.09 100.56" class="st1"/>
			</g>
			<g id="shape10-17" v:mID="10" v:groupContext="shape" transform="translate(111.654,82.6917) rotate(90)">
				<title>工作表.10</title>
				<path d="M0 100.56 L17.87 100.56" class="st1"/>
			</g>
			<g id="shape11-20" v:mID="11" v:groupContext="shape" transform="translate(122.746,82.6917) rotate(90)">
				<title>工作表.11</title>
				<path d="M0 100.56 L17.87 100.56" class="st1"/>
			</g>
			<g id="shape12-23" v:mID="12" v:groupContext="shape">
				<title>工作表.12</title>
				<path d="M0 100.56 L11.09 100.56" class="st1"/>
			</g>
		</g>
		<g id="group13-26" transform="translate(87.5633,-62.8336)" v:mID="13" v:groupContext="group">
			<title>工作表.13</title>
			<g id="shape14-27" v:mID="14" v:groupContext="shape" transform="translate(11.0914,-17.8713)">
				<title>工作表.14</title>
				<path d="M0 100.56 L11.09 100.56" class="st1"/>
			</g>
			<g id="shape15-30" v:mID="15" v:groupContext="shape" transform="translate(111.654,82.6917) rotate(90)">
				<title>工作表.15</title>
				<path d="M0 100.56 L17.87 100.56" class="st1"/>
			</g>
			<g id="shape16-33" v:mID="16" v:groupContext="shape" transform="translate(122.746,82.6917) rotate(90)">
				<title>工作表.16</title>
				<path d="M0 100.56 L17.87 100.56" class="st1"/>
			</g>
			<g id="shape17-36" v:mID="17" v:groupContext="shape">
				<title>工作表.17</title>
				<path d="M0 100.56 L11.09 100.56" class="st1"/>
			</g>
		</g>
		<g id="group18-39" transform="translate(109.746,-62.8336)" v:mID="18" v:groupContext="group">
			<title>工作表.18</title>
			<g id="shape19-40" v:mID="19" v:groupContext="shape" transform="translate(11.0914,-17.8713)">
				<title>工作表.19</title>
				<path d="M0 100.56 L11.09 100.56" class="st1"/>
			</g>
			<g id="shape20-43" v:mID="20" v:groupContext="shape" transform="translate(111.654,82.6917) rotate(90)">
				<title>工作表.20</title>
				<path d="M0 100.56 L17.87 100.56" class="st1"/>
			</g>
			<g id="shape21-46" v:mID="21" v:groupContext="shape" transform="translate(122.746,82.6917) rotate(90)">
				<title>工作表.21</title>
				<path d="M0 100.56 L17.87 100.56" class="st1"/>
			</g>
			<g id="shape22-49" v:mID="22" v:groupContext="shape">
				<title>工作表.22</title>
				<path d="M0 100.56 L11.09 100.56" class="st1"/>
			</g>
		</g>
		<g id="group23-52" transform="translate(132.332,-62.8336)" v:mID="23" v:groupContext="group">
			<title>工作表.23</title>
			<g id="shape24-53" v:mID="24" v:groupContext="shape" transform="translate(11.0914,-17.8713)">
				<title>工作表.24</title>
				<path d="M0 100.56 L11.09 100.56" class="st1"/>
			</g>
			<g id="shape25-56" v:mID="25" v:groupContext="shape" transform="translate(111.654,82.6917) rotate(90)">
				<title>工作表.25</title>
				<path d="M0 100.56 L17.87 100.56" class="st1"/>
			</g>
			<g id="shape26-59" v:mID="26" v:groupContext="shape" transform="translate(122.746,82.6917) rotate(90)">
				<title>工作表.26</title>
				<path d="M0 100.56 L17.87 100.56" class="st1"/>
			</g>
			<g id="shape27-62" v:mID="27" v:groupContext="shape">
				<title>工作表.27</title>
				<path d="M0 100.56 L11.09 100.56" class="st1"/>
			</g>
		</g>
		<g id="group28-65" transform="translate(154.515,-62.8336)" v:mID="28" v:groupContext="group">
			<title>工作表.28</title>
			<g id="shape29-66" v:mID="29" v:groupContext="shape" transform="translate(11.0914,-17.8713)">
				<title>工作表.29</title>
				<path d="M0 100.56 L11.09 100.56" class="st1"/>
			</g>
			<g id="shape30-69" v:mID="30" v:groupContext="shape" transform="translate(111.654,82.6917) rotate(90)">
				<title>工作表.30</title>
				<path d="M0 100.56 L17.87 100.56" class="st1"/>
			</g>
			<g id="shape31-72" v:mID="31" v:groupContext="shape" transform="translate(122.746,82.6917) rotate(90)">
				<title>工作表.31</title>
				<path d="M0 100.56 L17.87 100.56" class="st1"/>
			</g>
			<g id="shape32-75" v:mID="32" v:groupContext="shape">
				<title>工作表.32</title>
				<path d="M0 100.56 L11.09 100.56" class="st1"/>
			</g>
		</g>
		<g id="group33-78" transform="translate(177.196,-62.5921)" v:mID="33" v:groupContext="group">
			<title>工作表.33</title>
			<g id="shape34-79" v:mID="34" v:groupContext="shape" transform="translate(11.0914,-17.8713)">
				<title>工作表.34</title>
				<path d="M0 100.56 L11.09 100.56" class="st1"/>
			</g>
			<g id="shape35-82" v:mID="35" v:groupContext="shape" transform="translate(111.654,82.6917) rotate(90)">
				<title>工作表.35</title>
				<path d="M0 100.56 L17.87 100.56" class="st1"/>
			</g>
			<g id="shape36-85" v:mID="36" v:groupContext="shape" transform="translate(122.746,82.6917) rotate(90)">
				<title>工作表.36</title>
				<path d="M0 100.56 L17.87 100.56" class="st1"/>
			</g>
			<g id="shape37-88" v:mID="37" v:groupContext="shape">
				<title>工作表.37</title>
				<path d="M0 100.56 L11.09 100.56" class="st1"/>
			</g>
		</g>
		<g id="group38-91" transform="translate(199.782,-62.5921)" v:mID="38" v:groupContext="group">
			<title>工作表.38</title>
			<g id="shape39-92" v:mID="39" v:groupContext="shape" transform="translate(11.0914,-17.8713)">
				<title>工作表.39</title>
				<path d="M0 100.56 L11.09 100.56" class="st1"/>
			</g>
			<g id="shape40-95" v:mID="40" v:groupContext="shape" transform="translate(111.654,82.6917) rotate(90)">
				<title>工作表.40</title>
				<path d="M0 100.56 L17.87 100.56" class="st1"/>
			</g>
			<g id="shape41-98" v:mID="41" v:groupContext="shape" transform="translate(122.746,82.6917) rotate(90)">
				<title>工作表.41</title>
				<path d="M0 100.56 L17.87 100.56" class="st1"/>
			</g>
			<g id="shape42-101" v:mID="42" v:groupContext="shape">
				<title>工作表.42</title>
				<path d="M0 100.56 L11.09 100.56" class="st1"/>
			</g>
		</g>
		<g id="group43-104" transform="translate(221.965,-62.5921)" v:mID="43" v:groupContext="group">
			<title>工作表.43</title>
			<g id="shape44-105" v:mID="44" v:groupContext="shape" transform="translate(11.0914,-17.8713)">
				<title>工作表.44</title>
				<path d="M0 100.56 L11.09 100.56" class="st1"/>
			</g>
			<g id="shape45-108" v:mID="45" v:groupContext="shape" transform="translate(111.654,82.6917) rotate(90)">
				<title>工作表.45</title>
				<path d="M0 100.56 L17.87 100.56" class="st1"/>
			</g>
			<g id="shape46-111" v:mID="46" v:groupContext="shape" transform="translate(122.746,82.6917) rotate(90)">
				<title>工作表.46</title>
				<path d="M0 100.56 L17.87 100.56" class="st1"/>
			</g>
			<g id="shape47-114" v:mID="47" v:groupContext="shape">
				<title>工作表.47</title>
				<path d="M0 100.56 L11.09 100.56" class="st1"/>
			</g>
		</g>
		<g id="group48-117" transform="translate(244.148,-62.5921)" v:mID="48" v:groupContext="group">
			<title>工作表.48</title>
			<g id="shape49-118" v:mID="49" v:groupContext="shape" transform="translate(11.0914,-17.8713)">
				<title>工作表.49</title>
				<path d="M0 100.56 L11.09 100.56" class="st1"/>
			</g>
			<g id="shape50-121" v:mID="50" v:groupContext="shape" transform="translate(111.654,82.6917) rotate(90)">
				<title>工作表.50</title>
				<path d="M0 100.56 L17.87 100.56" class="st1"/>
			</g>
			<g id="shape51-124" v:mID="51" v:groupContext="shape" transform="translate(122.746,82.6917) rotate(90)">
				<title>工作表.51</title>
				<path d="M0 100.56 L17.87 100.56" class="st1"/>
			</g>
			<g id="shape52-127" v:mID="52" v:groupContext="shape">
				<title>工作表.52</title>
				<path d="M0 100.56 L11.09 100.56" class="st1"/>
			</g>
		</g>
		<g id="group53-130" transform="translate(266.734,-62.5921)" v:mID="53" v:groupContext="group">
			<title>工作表.53</title>
			<g id="shape54-131" v:mID="54" v:groupContext="shape" transform="translate(11.0914,-17.8713)">
				<title>工作表.54</title>
				<path d="M0 100.56 L11.09 100.56" class="st1"/>
			</g>
			<g id="shape55-134" v:mID="55" v:groupContext="shape" transform="translate(111.654,82.6917) rotate(90)">
				<title>工作表.55</title>
				<path d="M0 100.56 L17.87 100.56" class="st1"/>
			</g>
			<g id="shape56-137" v:mID="56" v:groupContext="shape" transform="translate(122.746,82.6917) rotate(90)">
				<title>工作表.56</title>
				<path d="M0 100.56 L17.87 100.56" class="st1"/>
			</g>
			<g id="shape57-140" v:mID="57" v:groupContext="shape">
				<title>工作表.57</title>
				<path d="M0 100.56 L11.09 100.56" class="st1"/>
			</g>
		</g>
		<g id="group58-143" transform="translate(288.917,-62.5921)" v:mID="58" v:groupContext="group">
			<title>工作表.58</title>
			<g id="shape59-144" v:mID="59" v:groupContext="shape" transform="translate(11.0914,-17.8713)">
				<title>工作表.59</title>
				<path d="M0 100.56 L11.09 100.56" class="st1"/>
			</g>
			<g id="shape60-147" v:mID="60" v:groupContext="shape" transform="translate(111.654,82.6917) rotate(90)">
				<title>工作表.60</title>
				<path d="M0 100.56 L17.87 100.56" class="st1"/>
			</g>
			<g id="shape61-150" v:mID="61" v:groupContext="shape" transform="translate(122.746,82.6917) rotate(90)">
				<title>工作表.61</title>
				<path d="M0 100.56 L17.87 100.56" class="st1"/>
			</g>
			<g id="shape62-153" v:mID="62" v:groupContext="shape">
				<title>工作表.62</title>
				<path d="M0 100.56 L11.09 100.56" class="st1"/>
			</g>
		</g>
		<g id="shape93-156" v:mID="93" v:groupContext="shape" transform="translate(0.25,-67.7146)">
			<title>工作表.93</title>
			<desc>Clock 800MHz</desc>
			<v:textBlock v:margins="rect(4,4,4,4)" v:tabSpace="42.5197"/>
			<v:textRect cx="20.9117" cy="95.6024" width="41.83" height="9.92126"/>
			<rect x="0" y="90.6417" width="41.8234" height="9.92126" class="st2"/>
			<text x="11.16" y="92.9" class="st3" v:langID="2052"><v:paragraph v:horizAlign="1"/><v:tabList/>Clock <tspan x="5.64"
						dy="1.2em" class="st4">800</tspan>MHz</text>		</g>
		<g id="shape94-160" v:mID="94" v:groupContext="shape" transform="translate(-46.6772,54.1083) rotate(-90)">
			<title>工作表.94</title>
			<path d="M0 100.56 L47.67 100.56" class="st5"/>
		</g>
		<g id="shape96-163" v:mID="96" v:groupContext="shape" transform="translate(-24.1904,54.1083) rotate(-90)">
			<title>工作表.96</title>
			<path d="M0 100.56 L47.67 100.56" class="st5"/>
		</g>
		<g id="shape97-166" v:mID="97" v:groupContext="shape" transform="translate(51.9946,-90.3917)">
			<title>工作表.97</title>
			<desc>1.25 ns</desc>
			<v:textBlock v:margins="rect(4,4,4,4)" v:tabSpace="42.5197"/>
			<v:textRect cx="13.1041" cy="95.6024" width="26.21" height="9.92126"/>
			<rect x="0" y="90.6417" width="26.2081" height="9.92126" class="st2"/>
			<text x="4.36" y="97.4" class="st6" v:langID="2052"><v:paragraph v:horizAlign="1"/><v:tabList/>1.25 ns</text>		</g>
		<g id="shape98-169" v:mID="98" v:groupContext="shape" transform="translate(53.8858,-88.9744)">
			<title>工作表.98</title>
			<path d="M3.91 100.56 L4.27 100.56 L17.65 100.56" class="st7"/>
		</g>
		<g id="shape100-178" v:mID="100" v:groupContext="shape" transform="translate(176.842,49.2763) rotate(90)">
			<title>工作表.100</title>
			<path d="M0 100.56 L17.87 100.56" class="st1"/>
		</g>
		<g id="shape101-181" v:mID="101" v:groupContext="shape" transform="translate(42.0734,-33.4154)">
			<title>工作表.101</title>
			<path d="M0 100.56 L33.77 100.56" class="st1"/>
		</g>
		<g id="shape102-184" v:mID="102" v:groupContext="shape" transform="translate(76.7196,-51.5565) rotate(0.197723)">
			<title>工作表.102</title>
			<path d="M0 100.56 L96.19 100.56" class="st1"/>
		</g>
		<g id="shape103-187" v:mID="103" v:groupContext="shape" transform="translate(1.66732,-36.5335)">
			<title>工作表.103</title>
			<desc>Pulse Ch-1</desc>
			<v:textBlock v:margins="rect(4,4,4,4)" v:tabSpace="42.5197"/>
			<v:textRect cx="20.9117" cy="95.6024" width="41.83" height="9.92126"/>
			<rect x="0" y="90.6417" width="41.8234" height="9.92126" class="st2"/>
			<text x="11.19" y="92.9" class="st3" v:langID="2052"><v:paragraph v:horizAlign="1"/><v:tabList/>Pulse<v:newlineChar/><tspan
						x="12.49" dy="1.2em" class="st4">Ch</tspan>-1</text>		</g>
		<g id="shape104-191" v:mID="104" v:groupContext="shape" transform="translate(76.2795,-42.2028)">
			<title>工作表.104</title>
			<path d="M3.91 100.56 L4.27 100.56 L85.11 100.56" class="st7"/>
		</g>
		<g id="shape105-198" v:mID="105" v:groupContext="shape" transform="translate(273.478,49.4087) rotate(90)">
			<title>工作表.105</title>
			<path d="M0 100.56 L17.87 100.56" class="st1"/>
		</g>
		<g id="shape106-201" v:mID="106" v:groupContext="shape" transform="translate(65.1009,67.2776) rotate(-90)">
			<title>工作表.106</title>
			<path d="M0 100.56 L55.17 100.56" class="st5"/>
		</g>
		<g id="shape107-204" v:mID="107" v:groupContext="shape" transform="translate(83.1757,-30.8642)">
			<title>工作表.107</title>
			<desc>Minimum Pulse Width 5ns</desc>
			<v:textBlock v:margins="rect(4,4,4,4)" v:tabSpace="42.5197"/>
			<v:textRect cx="38.2677" cy="95.6024" width="76.54" height="9.92126"/>
			<rect x="0" y="90.6417" width="76.5354" height="9.92126" class="st2"/>
			<text x="6.08" y="97.4" class="st6" v:langID="2052"><v:paragraph v:horizAlign="1"/><v:tabList/>Minimum Pulse Width 5ns</text>		</g>
		<g id="shape117-207" v:mID="117" v:groupContext="shape" transform="translate(165.664,-42.2028)">
			<title>单箭头</title>
			<v:userDefs>
				<v:ud v:nameU="ControlX" v:val="VT0(0.059055118110236):24"/>
				<v:ud v:nameU="Scale" v:val="VT0(1):26"/>
				<v:ud v:nameU="AntiScale" v:val="VT0(1):26"/>
				<v:ud v:nameU="visVersion" v:val="VT0(15):26"/>
				<v:ud v:nameU="ControlX" v:prompt="" v:val="VT0(0.01814447):1"/>
			</v:userDefs>
			<path d="M1.31 99.91 L1.31 101.22 L0 100.56 L1.31 99.91 ZM6.06 99.91 L6.06 101.22 L7.37 100.56 L6.06 99.91 Z"
					class="st9"/>
			<path d="M1.31 99.91 L1.31 101.22 L0 100.56 L1.31 99.91" class="st10"/>
			<path d="M6.06 99.91 L6.06 101.22 L7.37 100.56 L6.06 99.91" class="st10"/>
			<path d="M1.31 100.56 L6.06 100.56" class="st10"/>
		</g>
		<g id="shape118-212" v:mID="118" v:groupContext="shape" transform="translate(155.459,-22.3602)">
			<title>工作表.118</title>
			<desc>Fine Resolution 50 ps</desc>
			<v:textBlock v:margins="rect(4,4,4,4)" v:tabSpace="42.5197"/>
			<v:textRect cx="38.2677" cy="95.6024" width="76.54" height="9.92126"/>
			<rect x="0" y="90.6417" width="76.5354" height="9.92126" class="st2"/>
			<text x="12.31" y="97.4" class="st6" v:langID="2052"><v:paragraph v:horizAlign="1"/><v:tabList/>Fine Resolution 50 ps</text>		</g>
		<g id="shape120-215" v:mID="120" v:groupContext="shape" transform="translate(74.356,95.9083) rotate(-105.945)">
			<title>工作表.120</title>
			<path d="M0 100.56 L6.05 100.56" class="st11"/>
		</g>
		<g id="shape121-221" v:mID="121" v:groupContext="shape" transform="translate(173.259,-33.2824) rotate(0.196232)">
			<title>工作表.121</title>
			<path d="M0 100.56 L100.18 100.56" class="st1"/>
		</g>
		<g id="shape122-224" v:mID="122" v:groupContext="shape" transform="translate(225.879,79.6495) rotate(90)">
			<title>工作表.122</title>
			<path d="M0 100.56 L17.87 100.56" class="st1"/>
		</g>
		<g id="shape123-227" v:mID="123" v:groupContext="shape" transform="translate(41.7823,-2.80076) rotate(-0.165852)">
			<title>工作表.123</title>
			<path d="M0 100.56 L83.24 100.56" class="st1"/>
		</g>
		<g id="shape124-230" v:mID="124" v:groupContext="shape" transform="translate(125.689,-20.9422) rotate(0.212562)">
			<title>工作表.124</title>
			<path d="M0 100.56 L113.77 100.56" class="st1"/>
		</g>
		<g id="shape125-233" v:mID="125" v:groupContext="shape" transform="translate(1.31917,-6.76969)">
			<title>工作表.125</title>
			<desc>Pulse Ch-2</desc>
			<v:textBlock v:margins="rect(4,4,4,4)" v:tabSpace="42.5197"/>
			<v:textRect cx="20.9117" cy="95.6024" width="41.83" height="9.92126"/>
			<rect x="0" y="90.6417" width="41.8234" height="9.92126" class="st2"/>
			<text x="11.19" y="92.9" class="st3" v:langID="2052"><v:paragraph v:horizAlign="1"/><v:tabList/>Pulse<v:newlineChar/><tspan
						x="12.49" dy="1.2em" class="st4">Ch</tspan>-2</text>		</g>
		<g id="shape126-237" v:mID="126" v:groupContext="shape" transform="translate(125.573,-11.5883) rotate(0.146013)">
			<title>工作表.126</title>
			<path d="M3.91 100.56 L4.27 100.56 L104.57 100.56" class="st7"/>
		</g>
		<g id="shape127-244" v:mID="127" v:groupContext="shape" transform="translate(339.641,80.0421) rotate(90)">
			<title>工作表.127</title>
			<path d="M0 100.56 L17.87 100.56" class="st1"/>
		</g>
		<g id="shape128-247" v:mID="128" v:groupContext="shape" transform="translate(123.582,-0.25)">
			<title>工作表.128</title>
			<desc>Coarse Resolution 1.25ns</desc>
			<v:textBlock v:margins="rect(4,4,4,4)" v:tabSpace="42.5197"/>
			<v:textRect cx="38.2677" cy="95.6024" width="76.54" height="9.92126"/>
			<rect x="0" y="90.6417" width="76.5354" height="9.92126" class="st2"/>
			<text x="7.52" y="97.4" class="st6" v:langID="2052"><v:paragraph v:horizAlign="1"/><v:tabList/>Coarse Resolution 1.25ns</text>		</g>
		<g id="shape131-250" v:mID="131" v:groupContext="shape" transform="translate(239.081,-2.33044)">
			<title>工作表.131</title>
			<path d="M0 100.56 L72.28 100.56" class="st1"/>
		</g>
		<g id="shape132-253" v:mID="132" v:groupContext="shape" transform="translate(373.66,49.7518) rotate(90)">
			<title>工作表.132</title>
			<path d="M0 100.56 L17.87 100.56" class="st1"/>
		</g>
		<g id="shape133-256" v:mID="133" v:groupContext="shape" transform="translate(154.392,69.59) rotate(-90)">
			<title>工作表.133</title>
			<path d="M0 100.56 L55.17 100.56" class="st5"/>
		</g>
		<g id="shape134-259" v:mID="134" v:groupContext="shape" transform="translate(273.451,-50.8105) rotate(0.201629)">
			<title>工作表.134</title>
			<path d="M0 100.56 L38.27 100.56" class="st1"/>
		</g>
		<g id="shape135-262" v:mID="135" v:groupContext="shape" transform="translate(188.144,-22.6291) rotate(-18.8624)">
			<title>工作表.135</title>
			<path d="M0 100.56 L41.94 100.56" class="st11"/>
		</g>
		<g id="shape136-267" v:mID="136" v:groupContext="shape" transform="translate(253.999,-42.8761) rotate(-0.544916)">
			<title>单箭头.136</title>
			<v:userDefs>
				<v:ud v:nameU="ControlX" v:val="VT0(0.059055118110236):24"/>
				<v:ud v:nameU="Scale" v:val="VT0(1):26"/>
				<v:ud v:nameU="AntiScale" v:val="VT0(1):26"/>
				<v:ud v:nameU="visVersion" v:val="VT0(15):26"/>
				<v:ud v:nameU="ControlX" v:prompt="" v:val="VT0(0.01814447):1"/>
			</v:userDefs>
			<path d="M1.31 99.91 L1.31 101.22 L0 100.56 L1.31 99.91 ZM16.84 99.91 L16.84 101.22 L18.14 100.56 L16.84 99.91 Z"
					class="st9"/>
			<path d="M1.31 99.91 L1.31 101.22 L0 100.56 L1.31 99.91" class="st10"/>
			<path d="M16.84 99.91 L16.84 101.22 L18.14 100.56 L16.84 99.91" class="st10"/>
			<path d="M1.31 100.56 L16.84 100.56" class="st10"/>
		</g>
		<g id="shape137-272" v:mID="137" v:groupContext="shape" transform="translate(9.25842,95.2106) rotate(-90)">
			<title>工作表.137</title>
			<path d="M0 100.56 L77.95 100.56" class="st5"/>
		</g>
		<g id="shape138-275" v:mID="138" v:groupContext="shape" transform="translate(132.282,93.7933) rotate(-90)">
			<title>工作表.138</title>
			<path d="M0 100.56 L77.84 100.56" class="st5"/>
		</g>
		<g id="shape139-278" v:mID="139" v:groupContext="shape" transform="translate(197.64,168.25) rotate(162.14)">
			<title>工作表.139</title>
			<path d="M0 100.56 L49.34 100.56" class="st11"/>
		</g>
		<g id="shape140-283" v:mID="140" v:groupContext="shape" transform="translate(109.675,-11.5886) rotate(0.000657423)">
			<title>单箭头.140</title>
			<v:userDefs>
				<v:ud v:nameU="ControlX" v:val="VT0(0.059055118110236):24"/>
				<v:ud v:nameU="Scale" v:val="VT0(1):26"/>
				<v:ud v:nameU="AntiScale" v:val="VT0(1):26"/>
				<v:ud v:nameU="visVersion" v:val="VT0(15):26"/>
				<v:ud v:nameU="ControlX" v:prompt="" v:val="VT0(0.01814447):1"/>
			</v:userDefs>
			<path d="M1.31 99.91 L1.31 101.22 L0 100.56 L1.31 99.91 ZM14.72 99.91 L14.72 101.22 L16.02 100.56 L14.72 99.91 Z"
					class="st9"/>
			<path d="M1.31 99.91 L1.31 101.22 L0 100.56 L1.31 99.91" class="st10"/>
			<path d="M14.72 99.91 L14.72 101.22 L16.02 100.56 L14.72 99.91" class="st10"/>
			<path d="M1.31 100.56 L14.72 100.56" class="st10"/>
		</g>
		<g id="shape141-288" v:mID="141" v:groupContext="shape" transform="translate(232.375,-11.304) rotate(-0.267844)">
			<title>单箭头.141</title>
			<v:userDefs>
				<v:ud v:nameU="ControlX" v:val="VT0(0.059055118110236):24"/>
				<v:ud v:nameU="Scale" v:val="VT0(1):26"/>
				<v:ud v:nameU="AntiScale" v:val="VT0(1):26"/>
				<v:ud v:nameU="visVersion" v:val="VT0(15):26"/>
				<v:ud v:nameU="ControlX" v:prompt="" v:val="VT0(0.01814447):1"/>
			</v:userDefs>
			<path d="M1.31 99.91 L1.31 101.22 L0 100.56 L1.31 99.91 ZM4.76 99.91 L4.76 101.22 L6.06 100.56 L4.76 99.91 Z"
					class="st9"/>
			<path d="M1.31 99.91 L1.31 101.22 L0 100.56 L1.31 99.91" class="st10"/>
			<path d="M4.76 99.91 L4.76 101.22 L6.06 100.56 L4.76 99.91" class="st10"/>
			<path d="M1.31 100.56 L4.76 100.56" class="st10"/>
		</g>
		<g id="shape142-293" v:mID="142" v:groupContext="shape" transform="translate(288.228,0.606694) rotate(42.2166)">
			<title>工作表.142</title>
			<path d="M0 100.56 L16.78 100.56" class="st11"/>
		</g>
	</g>
</svg>
